<svg viewBox="0 0 100 100" width="100%" height="100%" xmlns="http://www.w3.org/2000/svg">
  <circle cx="50" cy="50" r="45" fill="#F2A93B" stroke="#181B1F" stroke-width="2.5"/>
  <path d="M50 50 L50 5 A45 45 0 0 1 95 50 Z" fill="#85A5EA" stroke="#181B1F" stroke-width="2.5"/>
  <path d="M50 50 L95 50 A45 45 0 0 1 50 95 Z" fill="#4869A8" stroke="#181B1F" stroke-width="2.5"/>
  <line x1="50" y1="50" x2="50" y2="95" stroke="#181B1F" stroke-width="2.5"/>

  <g stroke="#181B1F" stroke-width="2">
    <rect x="46" y="10" width="8" height="8" fill="#F2A93B"/>
    <rect x="47" y="12" width="6" height="6" fill="#85A5EA" transform="rotate(30 50 50)"/>
    <rect x="47" y="12" width="6" height="6" fill="#85A5EA" transform="rotate(60 50 50)"/>
    <rect x="46" y="10" width="8" height="8" fill="#85A5EA" transform="rotate(90 50 50)"/>
    <rect x="47" y="12" width="6" height="6" fill="#85A5EA" transform="rotate(120 50 50)"/>
    <rect x="47" y="12" width="6" height="6" fill="#85A5EA" transform="rotate(150 50 50)"/>
    <rect x="46" y="10" width="8" height="8" fill="#4869A8" transform="rotate(180 50 50)"/>
    <rect x="47" y="12" width="6" height="6" fill="#85A5EA" transform="rotate(210 50 50)"/>
    <rect x="47" y="12" width="6" height="6" fill="#85A5EA" transform="rotate(240 50 50)"/>
    <rect x="46" y="10" width="8" height="8" fill="#F2A93B" transform="rotate(270 50 50)"/>
    <rect x="47" y="12" width="6" height="6" fill="#85A5EA" transform="rotate(300 50 50)"/>
    <rect x="47" y="12" width="6" height="6" fill="#85A5EA" transform="rotate(330 50 50)"/>
  </g>

  <g transform="rotate(60 50 50)">
    <rect x="46" y="25" width="8" height="8" fill="#F2A93B" stroke="#181B1F" stroke-width="2"/>
    <rect x="46" y="33" width="8" height="8" fill="#F2A93B" stroke="#181B1F" stroke-width="2"/>
    <rect x="46" y="41" width="8" height="8" fill="#F2A93B" stroke="#181B1F" stroke-width="2"/>
  </g>
  
  <g transform="rotate(140 50 50)">
    <rect x="46" y="20" width="8" height="30" fill="#85A5EA" stroke="#181B1F" stroke-width="2"/>
  </g>

  <g transform="rotate(0 50 50)">
    <rect x="47" y="22" width="6" height="6" fill="#F2A93B" stroke="#181B1F" stroke-width="2"/>
    <rect x="47" y="28" width="6" height="6" fill="#F2A93B" stroke="#181B1F" stroke-width="2"/>
    <rect x="47" y="34" width="6" height="6" fill="#F2A93B" stroke="#181B1F" stroke-width="2"/>
    <rect x="47" y="40" width="6" height="6" fill="#F2A93B" stroke="#181B1F" stroke-width="2"/>
  </g>

  <circle cx="50" cy="50" r="5" fill="#4869A8" stroke="#181B1F" stroke-width="2"/>
</svg>
